<svg width="17" height="16" viewBox="0 0 17 16" fill="none" xmlns="http://www.w3.org/2000/svg">
<g clip-path="url(#clip0_1052_5827)">
<path d="M2.83333 16H12.8333C13.4531 15.9983 14.0469 15.7507 14.4844 15.3116C14.9218 14.8725 15.1672 14.2778 15.1667 13.658V8.63337C15.1667 8.45656 15.0964 8.28699 14.9714 8.16197C14.8464 8.03695 14.6768 7.96671 14.5 7.96671C14.3232 7.96671 14.1536 8.03695 14.0286 8.16197C13.9036 8.28699 13.8333 8.45656 13.8333 8.63337V13.658C13.8342 13.9243 13.7294 14.1801 13.5419 14.3692C13.3545 14.5583 13.0996 14.6653 12.8333 14.6667H2.83333C2.56705 14.6653 2.3122 14.5583 2.12472 14.3692C1.93724 14.1801 1.83245 13.9243 1.83333 13.658V3.67537C1.83245 3.40909 1.93724 3.15333 2.12472 2.96422C2.3122 2.77512 2.56705 2.66812 2.83333 2.66671H7.83333C8.01015 2.66671 8.17971 2.59647 8.30474 2.47145C8.42976 2.34642 8.5 2.17685 8.5 2.00004C8.5 1.82323 8.42976 1.65366 8.30474 1.52864C8.17971 1.40361 8.01015 1.33337 7.83333 1.33337H2.83333C2.21354 1.33514 1.61976 1.58273 1.18231 2.0218C0.744854 2.46088 0.499469 3.05557 0.500001 3.67537V13.658C0.499469 14.2778 0.744854 14.8725 1.18231 15.3116C1.61976 15.7507 2.21354 15.9983 2.83333 16Z" fill="#45A4FF"/>
<path d="M6.80333 7.02936L6.27733 9.43869C6.25353 9.54797 6.25759 9.66149 6.28917 9.76879C6.32074 9.87609 6.3788 9.97372 6.458 10.0527C6.53829 10.1297 6.63596 10.1862 6.74273 10.2174C6.8495 10.2486 6.96221 10.2536 7.07133 10.232L9.47533 9.70469C9.60016 9.67728 9.71448 9.61457 9.80467 9.52402L15.8807 3.44802C16.0664 3.2623 16.2138 3.04181 16.3143 2.79913C16.4148 2.55646 16.4666 2.29636 16.4666 2.03369C16.4666 1.77102 16.4148 1.51092 16.3143 1.26824C16.2138 1.02557 16.0664 0.805078 15.8807 0.619356C15.4999 0.255447 14.9934 0.0523682 14.4667 0.0523682C13.9399 0.0523682 13.4335 0.255447 13.0527 0.619356L6.986 6.70136C6.89495 6.79093 6.83154 6.90478 6.80333 7.02936ZM13.9953 1.56269C14.1222 1.44118 14.291 1.37335 14.4667 1.37335C14.6423 1.37335 14.8112 1.44118 14.938 1.56269C15.0613 1.68844 15.1304 1.85755 15.1304 2.03369C15.1304 2.20983 15.0613 2.37894 14.938 2.50469L14.4667 2.97602L13.524 2.03336L13.9953 1.56269ZM8.062 7.50536L12.578 2.97802L13.5113 3.91602L8.99333 8.44469L7.79667 8.70736L8.062 7.50536Z" fill="#45A4FF"/>
</g>
<defs>
<clipPath id="clip0_1052_5827">
<rect width="16" height="16" fill="white" transform="translate(0.5)"/>
</clipPath>
</defs>
</svg>
