<svg width="23" height="22" viewBox="0 0 23 22" fill="none" xmlns="http://www.w3.org/2000/svg">
<path d="M11.884 8.7882C14.324 8.7882 16.3021 6.82089 16.3021 4.3941C16.3021 1.96731 14.324 0 11.884 0C9.44398 0 7.46594 1.96731 7.46594 4.3941C7.46594 6.82089 9.44398 8.7882 11.884 8.7882Z" fill="white" fill-opacity="0.5"/>
<path d="M22.8261 18.9533C22.3679 16.878 21.317 14.9784 19.7998 13.4826C19.4315 13.1151 19.0325 12.7794 18.6069 12.4793C16.6689 11.0335 14.3066 10.2615 11.8841 10.2823C8.92187 10.2672 6.07382 11.4176 3.96102 13.4826C2.44378 14.9784 1.39293 16.878 0.934645 18.9533C0.854988 19.3203 0.859291 19.7003 0.947235 20.0654C1.03518 20.4305 1.20452 20.7712 1.44272 21.0625C1.68941 21.3599 2.00006 21.5986 2.35179 21.7608C2.70351 21.923 3.08735 22.0047 3.47503 21.9999H20.2931C20.6819 22.0001 21.0658 21.9133 21.4163 21.746C21.7669 21.5787 22.0751 21.335 22.3181 21.0332C22.552 20.7454 22.7189 20.4096 22.8067 20.0499C22.8946 19.6903 22.9012 19.3158 22.8261 18.9533Z" fill="white" fill-opacity="0.5"/>
</svg>
