<svg width="23" height="22" viewBox="0 0 23 22" fill="none" xmlns="http://www.w3.org/2000/svg">
<path d="M11.884 8.7882C14.324 8.7882 16.3021 6.82089 16.3021 4.3941C16.3021 1.96731 14.324 0 11.884 0C9.44396 0 7.46593 1.96731 7.46593 4.3941C7.46593 6.82089 9.44396 8.7882 11.884 8.7882Z" fill="white"/>
<path d="M22.826 18.9533C22.3677 16.878 21.3169 14.9784 19.7997 13.4826C19.4314 13.1151 19.0323 12.7794 18.6068 12.4793C16.6687 11.0335 14.3065 10.2615 11.884 10.2823C8.92175 10.2672 6.07369 11.4176 3.9609 13.4826C2.44366 14.9784 1.39281 16.878 0.934523 18.9533C0.854866 19.3203 0.859168 19.7003 0.947113 20.0654C1.03506 20.4305 1.20439 20.7712 1.4426 21.0625C1.68929 21.3599 1.99994 21.5986 2.35167 21.7608C2.70339 21.923 3.08723 22.0047 3.47491 21.9999H20.293C20.6818 22.0001 21.0657 21.9133 21.4162 21.746C21.7668 21.5787 22.0749 21.335 22.3179 21.0332C22.5519 20.7454 22.7188 20.4096 22.8066 20.0499C22.8945 19.6903 22.9011 19.3158 22.826 18.9533Z" fill="white"/>
</svg>
