<svg width="120" height="120" viewBox="0 0 120 120" fill="none" xmlns="http://www.w3.org/2000/svg">
<path d="M60 120C93.1371 120 120 93.1371 120 60C120 26.8629 93.1371 0 60 0C26.8629 0 0 26.8629 0 60C0 93.1371 26.8629 120 60 120Z" fill="#FFC200"/>
<path fill-rule="evenodd" clip-rule="evenodd" d="M102.111 102.734C90.7876 113.895 75.4972 120.104 59.5986 119.998C43.7 119.892 28.4937 113.48 17.3204 102.169C18.7493 98.2173 21.5247 94.8954 25.1592 92.7864C27.6088 90.9753 30.265 89.4618 33.0718 88.2777C28.8039 73.6117 40.4058 66.402 44.8446 64.3262C44.8446 71.0971 51.1845 66.6039 59.0524 66.6893C65.5301 66.7612 78.3398 73.2816 78.3398 64.6796C85.466 66.7884 93.233 80.369 87.8874 88.7126C90.0791 89.7843 92.1498 91.0875 94.0641 92.6C97.8064 94.9814 100.64 98.5491 102.111 102.734Z" fill="#677079"/>
<path fill-rule="evenodd" clip-rule="evenodd" d="M46.6641 75.1068L75.635 75.2816V81.9554L75.6214 82.0583C75.6013 82.3606 75.5558 82.6607 75.4854 82.9554L75.3884 83.6175L75.3301 83.7554C73.4544 93.6078 65.2466 97.4155 60.1786 100.068C54.8388 97.1592 47.2893 91.9185 46.6893 82.6466L46.6641 82.5321V82.1437C46.6599 82.0098 46.6573 81.8758 46.6563 81.7418C46.6563 81.8117 46.6621 81.8777 46.6641 81.9476V75.1068Z" fill="#F9DCA4"/>
<path opacity="0.11" fill-rule="evenodd" clip-rule="evenodd" d="M75.6369 74.9845V82.7612C75.6312 83.482 75.5696 84.2014 75.4524 84.9127C75.3054 85.7931 75.0578 86.6537 74.7146 87.4777C64.6486 95.0796 48.6097 88.8447 46.0486 75.8602L75.6369 74.9845Z" fill="black"/>
<path fill-rule="evenodd" clip-rule="evenodd" d="M35.1534 49C25.5612 51.466 33.7165 63.1553 39.7495 63.1049C37.3166 58.7461 35.7555 53.9554 35.1534 49ZM85.1204 49C94.7126 51.466 86.5573 63.1553 80.5223 63.1029C82.956 58.745 84.5177 53.9549 85.1204 49Z" fill="#F9DCA4"/>
<path fill-rule="evenodd" clip-rule="evenodd" d="M59.6757 22.0602C99.5262 22.0602 83.9961 85.0621 59.6757 85.0621C36.7049 85.0621 19.8253 22.0602 59.6757 22.0602Z" fill="#FFE8BE"/>
<path fill-rule="evenodd" clip-rule="evenodd" d="M40.868 42.9223C41.2079 43.295 41.46 43.7391 41.6058 44.222C41.7515 44.7049 41.7871 45.2144 41.71 45.7129C41.6328 46.2113 41.445 46.6862 41.1601 47.1025C40.8753 47.5188 40.5008 47.866 40.0641 48.1185C37.2485 50.435 37.1456 58.5126 37.1456 58.5126C36.0583 57.433 36.0835 51.6505 33.7262 48.3088C31.3689 44.967 29.7806 21.5845 42.9631 13.0816C42.153 14.0344 41.5692 15.1583 41.2555 16.3689C40.9417 17.5795 40.9061 18.8455 41.1515 20.0719C41.1515 20.0719 50.3087 6.93982 65.501 7.31846C64.2966 7.97518 63.244 8.87831 62.412 9.96899C61.5799 11.0597 60.987 12.3134 60.6718 13.6486C60.6718 13.6486 73.9534 8.16894 85.0214 14.6874C82.1438 15.4827 79.4222 16.7611 76.9728 18.468C82.3476 18.6155 87.5417 19.6136 91.4583 23.0971C90.6154 23.3677 89.8352 23.8045 89.164 24.3817C88.4927 24.9588 87.944 25.6647 87.5501 26.4575C87.1562 27.2503 86.9252 28.114 86.8708 28.9976C86.8163 29.8812 86.9395 30.7668 87.233 31.602C88.8951 38.4039 89.0505 44.7321 87.4408 48.134C85.8311 51.5359 85.0718 49.3398 84.0641 56.4738C84.0147 56.9557 83.8539 57.4196 83.5944 57.8287C83.3349 58.2378 82.9838 58.581 82.5689 58.8311C82.5301 59.3476 83.3107 51.5379 81.2971 49.4583C79.2854 47.3806 80.5495 44.8272 81.3534 43.3165C86.965 32.7787 70.1592 28.0039 60.9728 28.0155C53.0058 28.0253 33.7884 31.6466 40.868 42.9223Z" fill="#8A5C42"/>
<path fill-rule="evenodd" clip-rule="evenodd" d="M38.4272 95.4602C38.4854 95.534 58.6563 121.641 82.3689 95.0718C79.5048 102.94 67.1515 109.188 60.0854 109.169C46.5903 109.13 39.1223 98.2951 38.4272 95.4602Z" fill="#434955"/>
<path fill-rule="evenodd" clip-rule="evenodd" d="M70.5553 119.074C69.7592 119.214 68.9592 119.336 68.1534 119.447V102.093C68.1829 101.803 68.325 101.535 68.5493 101.348C68.7735 101.161 69.0621 101.068 69.3534 101.091C69.645 101.068 69.9341 101.16 70.1588 101.347C70.3834 101.534 70.5258 101.802 70.5553 102.093V119.074ZM51.4874 119.396C50.6822 119.281 49.8816 119.151 49.0854 119.008V102.093C49.115 101.803 49.2571 101.535 49.4813 101.348C49.7056 101.161 49.9942 101.068 50.2854 101.091C50.5773 101.067 50.8669 101.159 51.092 101.346C51.3171 101.534 51.4598 101.802 51.4893 102.093L51.4874 119.396Z" fill="#E6E6E6"/>
</svg>
