<svg width="25" height="20" viewBox="0 0 25 20" fill="none" xmlns="http://www.w3.org/2000/svg">
<path d="M23.5525 10.3634C23.8583 10.3287 24.1573 10.4685 24.3214 10.7229C24.4855 10.9773 24.4855 11.3011 24.3214 11.5555C24.1573 11.8099 23.8583 11.9497 23.5525 11.915H22.4221V14.8414C22.4249 16.2076 21.8712 17.5188 20.8829 18.4858C19.8947 19.4529 18.5532 19.9963 17.1542 19.9963H16.2904C15.8487 19.9963 15.4907 19.6466 15.4907 19.2152C15.4907 18.7839 15.8487 18.4342 16.2904 18.4342H17.1542C19.1694 18.4114 20.7907 16.8095 20.7906 14.8414V11.915H17.794V13.0814C17.794 13.7305 17.53 14.3529 17.06 14.8119C16.5901 15.2709 15.9527 15.5287 15.2881 15.5287H9.18838C7.80437 15.5287 6.6824 14.433 6.6824 13.0814V11.915H3.72854V14.8414C3.72854 16.8256 5.37568 18.4342 7.40754 18.4342H8.32462C8.76632 18.4342 9.1244 18.7839 9.1244 19.2152C9.1244 19.6466 8.76632 19.9963 8.32462 19.9963H7.46085C4.53684 19.9964 2.15821 17.6968 2.12897 14.8414V11.915H0.891979C0.586172 11.9497 0.287141 11.8099 0.123061 11.5555C-0.0410202 11.3011 -0.0410202 10.9773 0.123061 10.7229C0.287141 10.4685 0.586172 10.3287 0.891979 10.3634H23.5525ZM15.2774 4.67732C15.942 4.67732 16.5794 4.93516 17.0494 5.39411C17.5193 5.85307 17.7834 6.47554 17.7834 7.1246V8.46801C17.7864 8.54621 17.7559 8.62211 17.6992 8.67745C17.6426 8.73278 17.5649 8.76256 17.4848 8.7596H6.98098C6.90091 8.76256 6.82319 8.73278 6.76652 8.67745C6.70986 8.62211 6.67937 8.54621 6.6824 8.46801V7.1246C6.6824 5.77301 7.80437 4.67732 9.18838 4.67732H15.2774ZM17.1542 0.209717C20.0614 0.260828 22.3906 2.57718 22.3901 5.41671V6.53101C22.3901 6.96237 22.032 7.31206 21.5903 7.31206C21.1486 7.31206 20.7906 6.96237 20.7906 6.53101V5.41671C20.8048 4.46202 20.4293 3.54107 19.747 2.85719C19.0648 2.17332 18.1318 1.78278 17.1542 1.77181H16.2904C15.8487 1.77181 15.4907 1.42213 15.4907 0.990766C15.4907 0.559404 15.8487 0.209717 16.2904 0.209717H17.1542ZM8.2713 0.209717C8.71061 0.215326 9.06534 0.561749 9.07108 0.990766C9.06534 1.41978 8.71061 1.76621 8.2713 1.77181H7.40754C6.4225 1.77171 5.47856 2.15738 4.78706 2.84247C4.09556 3.52756 3.71426 4.45484 3.72854 5.41671V6.53101C3.7228 6.96002 3.36806 7.30645 2.92876 7.31206H2.91809L2.81065 7.30365C2.4244 7.2478 2.12897 6.92272 2.12897 6.53101V5.41671C2.12883 2.56118 4.48366 0.238272 7.40754 0.209717H8.2713Z" fill="white"/>
</svg>
