<svg width="40" height="40" viewBox="0 0 40 40" fill="none" xmlns="http://www.w3.org/2000/svg">
<path d="M27.3079 9.16663H33.3333C35.1741 9.16663 36.6666 10.6591 36.6666 12.5V30.8333C36.6666 32.6741 35.1741 34.1666 33.3333 34.1666H6.66665C4.82581 34.1666 3.33331 32.6741 3.33331 30.8333V12.5C3.33331 10.6591 4.82581 9.16663 6.66665 9.16663H11.8685" stroke="black" stroke-width="0.8"/>
<path d="M27.5 9.16671L26.3455 7.32597C25.7361 6.403 24.6012 5.83337 23.3731 5.83337H15.3648C14.1367 5.83337 12.2761 8.24374 11.6667 9.16671" stroke="black" stroke-width="0.8"/>
<path d="M30.8334 22.5H24.1667L27.5 18.0558L30.8334 22.5Z" fill="#2B2827"/>
<path d="M9.16669 20.8334H15.8334L12.5 25.2775L9.16669 20.8334Z" fill="#2B2827"/>
<path d="M25.4984 15.4467C24.0309 14.1409 22.1142 13.3334 20 13.3334C15.405 13.3334 11.6667 17.0717 11.6667 21.6667C11.6667 21.9242 11.6825 22.1784 11.705 22.4309H13.38C13.3517 22.1792 13.3334 21.925 13.3334 21.6667C13.3334 17.9909 16.3242 15 20 15C21.74 15 23.3125 15.6825 24.4984 16.78L25.4984 15.4467ZM28.2909 20.8334H26.6084C26.6434 21.1067 26.6667 21.3842 26.6667 21.6667C26.6667 25.3425 23.6759 28.3334 20 28.3334C18.26 28.3334 16.6875 27.6509 15.5017 26.5534L14.5025 27.885C15.97 29.1917 17.8859 30 20 30C24.595 30 28.3334 26.2617 28.3334 21.6667C28.3334 21.385 28.3184 21.1075 28.2909 20.8334Z" fill="#2B2827"/>
</svg>
