<svg width="22" height="22" viewBox="0 0 22 22" fill="none" xmlns="http://www.w3.org/2000/svg">
<path d="M18.86 12.6719V20.9026C18.86 21.1998 18.7735 21.457 18.6007 21.6742C18.4278 21.8914 18.2232 22 17.9866 22H12.7467V15.4154H9.25334V22H4.01337C3.77684 22 3.57216 21.8914 3.39931 21.6742C3.22646 21.457 3.14004 21.1998 3.14004 20.9026V12.6719C3.14004 12.6604 3.14232 12.6433 3.14686 12.6204C3.15141 12.5976 3.15369 12.5804 3.15369 12.569L11 4.44115L18.8463 12.569C18.8554 12.5918 18.86 12.6261 18.86 12.6719ZM21.903 11.4887L21.0569 12.7576C20.9841 12.8605 20.8886 12.9234 20.7704 12.9462H20.7294C20.6112 12.9462 20.5156 12.9062 20.4429 12.8262L11 2.93219L1.55713 12.8262C1.44797 12.9176 1.3388 12.9577 1.22963 12.9462C1.11137 12.9234 1.01585 12.8605 0.943074 12.7576L0.0970365 11.4887C0.0242591 11.3744 -0.00758098 11.2401 0.0015162 11.0857C0.0106134 10.9314 0.0606478 10.8085 0.15162 10.7171L9.96292 0.44583C10.254 0.14861 10.5997 0 11 0C11.4003 0 11.746 0.14861 12.0371 0.44583L15.3666 3.94388V0.600156C15.3666 0.440114 15.4076 0.308652 15.4895 0.205768C15.5713 0.102884 15.6759 0.0514419 15.8033 0.0514419H18.4233C18.5507 0.0514419 18.6553 0.102884 18.7371 0.205768C18.819 0.308652 18.86 0.440114 18.86 0.600156V7.59626L21.8484 10.7171C21.9394 10.8085 21.9894 10.9314 21.9985 11.0857C22.0076 11.2401 21.9757 11.3744 21.903 11.4887Z" fill="white" fill-opacity="0.5"/>
</svg>
